HIERARCHY
ROOT ui
{
	 OFFSET 0 0 0
	 CHANNELS 3 XPosition YPosition Z Position
	 EndSite
	 {
	 OFFSET 0 -1 0
	 }
}
ROOT li
{
	 OFFSET 0 0 0
	 CHANNELS 3 XPosition YPosition Z Position
	 EndSite
	 {
	 OFFSET 0 -1 0
	 }
}
ROOT ul
{
	 OFFSET 0 0 0
	 CHANNELS 3 XPosition YPosition Z Position
	 EndSite
	 {
	 OFFSET 0 -1 0
	 }
}
ROOT ll
{
	 OFFSET 0 0 0
	 CHANNELS 3 XPosition YPosition Z Position
	 EndSite
	 {
	 OFFSET 0 -1 0
	 }
}
ROOT tt
{
	 OFFSET 0 0 0
	 CHANNELS 3 XPosition YPosition Z Position
	 EndSite
	 {
	 OFFSET 0 -1 0
	 }
}
ROOT tb
{
	 OFFSET 0 0 0
	 CHANNELS 3 XPosition YPosition Z Position
	 EndSite
	 {
	 OFFSET 0 -1 0
	 }
}
ROOT td
{
	 OFFSET 0 0 0
	 CHANNELS 3 XPosition YPosition Z Position
	 EndSite
	 {
	 OFFSET 0 -1 0
	 }
}
ROOT v
{
	 OFFSET 0 0 0
	 CHANNELS 3 XPosition YPosition Z Position
	 EndSite
	 {
	 OFFSET 0 -1 0
	 }
}
ROOT bn
{
	 OFFSET 0 0 0
	 CHANNELS 3 XPosition YPosition Z Position
	 EndSite
	 {
	 OFFSET 0 -1 0
	 }
}
MOTION
Frames: 24
Frame Time: 0.002
0.006419517993927002	-9.748769998550415E-4	0		0.47515704345703125	-2.353103759765625	0		-0.9573463745117188	0.0303358154296875	0		-0.7835890502929688	-2.202245361328125	0		1.5174659423828125	-0.5820245971679687	0		3.29712451171875	-0.16535324096679688	0		4.67445263671875	-0.13322727966308595	0		5.5714287109375	0.20805172729492188	0		-0.33001568603515624	5.86514404296875	0		
-0.01999832534790039	0.008144994735717774	0		0.4245201416015625	-2.3428203125	0		-1.0278031005859376	0.0349332160949707	0		-0.7812742919921875	-2.19930126953125	0		1.546884765625	-0.5855394897460937	0		3.274795166015625	-0.14458860778808594	0		4.67986376953125	-0.1428395538330078	0		5.581951171875	0.20730831909179687	0		-0.29490042114257814	5.8697646484375	0		
0.006548460960388184	0.006799666881561279	0		0.4788037109375	-2.348455078125	0		-0.9681932373046875	0.040393959045410155	0		-0.7809307250976563	-2.199343994140625	0		1.541437255859375	-0.579754150390625	0		3.280266357421875	-0.15306651306152344	0		4.6754853515625	-0.13436555480957033	0		5.5776064453125	0.21569526672363282	0		-0.2937781372070313	5.86967529296875	0		
-0.01388805866241455	0.002868350028991699	0		0.4511810302734375	-2.34836865234375	0		-0.967591796875	0.04036728286743164	0		-0.782567138671875	-2.202370361328125	0		1.55894384765625	-0.5841687622070313	0		3.29496484375	-0.14061903381347657	0		4.6760703125	-0.13492437744140626	0		5.57907275390625	0.1980431365966797	0		-0.29262701416015624	5.8695849609375	0		
0.0037500760555267336	0.0036009769439697267	0		0.47655133056640625	-2.35375	0		-0.9669585571289062	0.040339553833007816	0		-0.7821375122070312	-2.202414794921875	0		1.539521240234375	-0.5842459106445312	0		3.2574931640625	-0.15069134521484376	0		4.6726337890625	-0.1414282684326172	0		5.56481103515625	0.2075556182861328	0		-0.29245550537109377	5.8705048828125	0		
-0.007650972843170166	-0.002401993989944458	0		0.4339937438964844	-2.35451220703125	0		-1.0293907470703125	0.030883878707885743	0		-0.7816747436523438	-2.202459228515625	0		1.5460687255859376	-0.5905448608398437	0		3.26117822265625	-0.1461116180419922	0		4.67732861328125	-0.13597969055175782	0		5.58039013671875	0.19682797241210936	0		-0.3233589477539062	5.863708984375	0		
0.01901529884338379	-0.0027472050189971922	0		0.4565712890625	-2.34385693359375	0		-1.015620361328125	0.04173981094360352	0		-0.8500902709960938	-2.19187158203125	0		1.5357991943359375	-0.5786766967773438	0		3.30172216796875	-0.15884837341308594	0		4.675966796875	-0.13844606018066405	0		5.57514697265625	0.2043249969482422	0		-0.307136474609375	5.87248974609375	0		
-0.008235896110534668	0.005407687187194824	0		0.4570713806152344	-2.343992919921875	0		-0.9449833374023437	0.03706622695922852	0		-0.7756282958984375	-2.19759423828125	0		1.5644012451171876	-0.5821513061523438	0		3.29754150390625	-0.14214979553222656	0		4.6835654296875	-0.14595924377441405	0		5.5858359375	0.20371713256835938	0		-0.28706500244140626	5.86823486328125	0		
0.011369076728820801	-0.001864184021949768	0		0.45353924560546877	-2.349081787109375	0		-1.0392781982421875	0.04091757583618164	0		-0.8141026000976562	-2.197275390625	0		1.5450430908203125	-0.5811654052734375	0		3.26315771484375	-0.14713961791992186	0		4.67338525390625	-0.12926588439941405	0		5.5765205078125	0.20334173583984375	0		-0.15279461669921876	5.8899189453125	0		
-0.009935744285583496	0.0022521560192108156	0		0.48103799438476563	-2.3514501953125	0		-0.9576693115234375	0.03513128662109375	0		-0.779623291015625	-2.202634765625	0		1.54262841796875	-0.5853169555664063	0		3.28472998046875	-0.15561683654785155	0		4.6759033203125	-0.1436478271484375	0		5.58311376953125	0.19486892700195313	0		-0.28599148559570314	5.86909521484375	0		
-0.013331068992614745	-7.910019755363464E-4	0		0.42759036254882815	-2.3470478515625	0		-1.0260789794921874	0.03074891471862793	0		-0.8530530395507813	-2.1969794921875	0		1.5291846923828125	-0.5903452758789063	0		3.281222900390625	-0.16982810974121093	0		4.674509765625	-0.14594964599609375	0		5.57783203125	0.20255790710449217	0		-0.28505850219726564	5.86902880859375	0		
-0.00870362663269043	0.002097846031188965	0		0.4570845947265625	-2.3474150390625	0		-0.9464534301757812	0.032972831726074216	0		-0.7735543823242188	-2.19776318359375	0		1.5268525390625	-0.5804586791992188	0		3.2910888671875	-0.1411333770751953	0		4.681177734375	-0.13828718566894532	0		5.5784404296875	0.20223757934570313	0		-0.3172550964355469	5.86327978515625	0		
-0.008144431114196778	0.002032231092453003	0		0.4316031188964844	-2.34225146484375	0		-1.03178466796875	0.04475944137573242	0		-0.773078857421875	-2.197799560546875	0		1.5473792724609374	-0.5817726440429688	0		3.27643408203125	-0.16318096923828124	0		4.68478857421875	-0.13255990600585937	0		5.5890068359375	0.20186448669433593	0		-0.28341748046875	5.868912109375	0		
-0.016619661331176757	0.0030598480701446535	0		0.48295343017578124	-2.351809814453125	0		-0.9553577270507813	0.035010547637939454	0		-0.7756546630859374	-2.19980419921875	0		1.5448370361328125	-0.5858527221679688	0		3.297076171875	-0.14953746032714843	0		4.68309912109375	-0.15375099182128907	0		5.5846142578125	0.21067117309570313	0		-0.28271142578125	5.86886328125	0		
-0.01118911075592041	-0.0010389209985733033	0		0.4293974609375	-2.347358642578125	0		-0.9608397216796875	0.040042724609375	0		-0.7772756958007813	-2.20281494140625	0		1.5652886962890624	-0.5861386108398438	0		3.266552001953125	-0.1483846893310547	0		4.67678369140625	-0.13086735534667968	0		5.58002197265625	0.2035119171142578	0		-0.28207879638671873	5.8688193359375	0		
-0.010764406204223633	-0.0010845890045166015	0		0.45674557495117185	-2.349673583984375	0		-1.0235070190429687	0.030624128341674803	0		-0.812873291015625	-2.199497314453125	0		1.5546807861328125	-0.5881165161132812	0		3.282972412109375	-0.1486622314453125	0		4.6880419921875	-0.14812997436523437	0		5.5804326171875	0.20133241271972657	0		-0.31456948852539063	5.8630966796875	0		
0.0016392320394515991	7.58817970752716E-4	0		0.4450919494628906	-2.348609375	0		-1.0040549926757814	0.03742108917236328	0		-0.7715166625976563	-2.197915771484375	0		1.558091796875	-0.5842192993164063	0		3.291248291015625	-0.15984819030761718	0		4.68641455078125	-0.14924949645996094	0		5.58082177734375	0.20117509460449218	0		-0.2649209289550781	5.87759033203125	0		
0.0249509220123291	-0.003500416040420532	0		0.48740798950195313	-2.348059814453125	0		-0.9556475830078125	0.04293914794921875	0		-0.7712055053710938	-2.197939697265625	0		1.55539404296875	-0.5882567138671875	0		3.293769775390625	-0.1419663848876953	0		4.681994140625	-0.1253260726928711	0		5.5811767578125	0.20103518676757812	0		-0.3136044616699219	5.86302978515625	0		
-0.005676837921142578	0.001762323021888733	0		0.43069488525390626	-2.3475537109375	0		-1.02839794921875	0.03562342071533203	0		-0.7828700561523437	-2.19284716796875	0		1.569754638671875	-0.5834528198242187	0		3.2739560546875	-0.15586224365234375	0		4.6841796875	-0.13945672607421875	0		5.58150244140625	0.20090846252441405	0		-0.31417626953125	5.8640087890625	0		
0.01658061408996582	-0.0024833760261535644	0		0.4849158935546875	-2.35211474609375	0		-0.9590552368164063	0.03993871688842773	0		-0.8116718139648438	-2.199588623046875	0		1.54701513671875	-0.5862874755859375	0		3.28431787109375	-0.1490413818359375	0		4.67855224609375	-0.1315023956298828	0		5.5768896484375	0.20983973693847657	0		-0.2797452697753906	5.8686513671875	0		
-0.009135997772216797	-0.0012642999887466431	0		0.431197509765625	-2.347631591796875	0		-1.0218759155273438	0.030529394149780273	0		-0.7754600219726563	-2.20295751953125	0		1.5532213134765624	-0.5923983764648437	0		3.29544287109375	-0.16422396850585938	0		4.6847451171875	-0.13965602111816405	0		5.58800048828125	0.19262591552734376	0		-0.2784022521972656	5.86761376953125	0		
0.016178361892700194	0.0054626622200012204	0		0.46244317626953124	-2.344968017578125	0		-1.0175892333984375	0.03447262573242187	0		-0.8441400756835937	-2.19231103515625	0		1.5365108642578125	-0.5872844848632812	0		3.284834228515625	-0.14919065856933594	0		4.6939716796875	-0.1418331298828125	0		5.582328125	0.20058213806152345	0		-0.2629744567871094	5.8784404296875	0		
-0.0046376090049743655	0.0016363339424133301	0		0.46060800170898436	-2.34798388671875	0		-0.9583116455078124	0.03988265228271484	0		-0.773015625	-2.200018798828125	0		1.5507734375	-0.5824686279296875	0		3.2799091796875	-0.1642104949951172	0		4.68521142578125	-0.13983177185058593	0		5.5925517578125	0.2003888397216797	0		-0.26268267822265623	5.8784140625	0		
5.071939826011658E-4	-0.003441709041595459	0		0.485734375	-2.352261474609375	0		-0.95811767578125	0.039863941192626956	0		-0.8088264770507813	-2.1976904296875	0		1.5479215087890625	-0.586487060546875	0		3.304293701171875	-0.14451213073730468	0		4.6854033203125	-0.13991580200195314	0		5.5778359375	0.20943943786621094	0		-0.2775271301269531	5.867533203125	0		
